<svg width="26" height="26" viewBox="0 0 26 26" fill="none" xmlns="http://www.w3.org/2000/svg">
    <path
        d="M24.9444 13.2778L24.8056 10.7778H13V15.5H19.6667C19.3889 17.1667 18.5556 18.5555 17.1667 19.3889V22.4444H21.3333C22.5384 21.2507 23.4818 19.8192 24.1034 18.2411C24.7251 16.6629 25.0116 14.9726 24.9444 13.2778Z"
        fill="#EA4335" />
    <path
        d="M13 25.5C16.3333 25.5 19.25 24.3889 21.3333 22.4444L17.1667 19.3889C16.2013 19.9936 15.1109 20.3705 13.9781 20.491C12.8453 20.6114 11.7 20.4723 10.6291 20.0841C9.55813 19.6958 8.58968 19.0688 7.79723 18.2504C7.00478 17.4321 6.40915 16.444 6.05555 15.3611H1.88889V18.5556C2.91697 20.6279 4.49995 22.3742 6.46163 23.6003C8.42331 24.8263 10.6867 25.484 13 25.5Z"
        fill="#EA4335" />
    <path
        d="M6.05554 15.3611C5.54707 13.8281 5.54707 12.1719 6.05554 10.6389V7.44444H1.88888C1.03221 9.17111 0.586456 11.0725 0.586456 13C0.586456 14.9275 1.03221 16.8289 1.88888 18.5556L6.05554 15.3611Z"
        fill="#EA4335" />
    <path
        d="M13 5.5C14.8056 5.5 16.4722 6.05556 17.7222 7.30556L21.3333 3.69445C19.8998 2.42765 18.1947 1.50678 16.3492 1.00276C14.5038 0.498744 12.5673 0.425031 10.6888 0.787299C8.81041 1.14957 7.0402 1.93815 5.51454 3.09231C3.98888 4.24647 2.74848 5.73541 1.88889 7.44445L6.05555 10.7778C6.542 9.30975 7.47039 8.02798 8.71355 7.10804C9.95672 6.1881 11.4539 5.67495 13 5.63889V5.5Z"
        fill="#EA4335" />
</svg>